<svg height="60px" viewBox="0 0 24 27" fill="none" xmlns="http://www.w3.org/2000/svg">
<g clip-path="url(#clip0_5_5)">
<path d="M12.0422 26.8313C11.6773 26.8313 11.3368 26.7341 11.0202 26.564L7.78361 24.6449C7.29694 24.3776 7.54027 24.2804 7.68607 24.2318C8.34319 24.0131 8.46502 23.9645 9.14644 23.5757C9.21934 23.5271 9.31654 23.5514 9.38944 23.6L11.8721 25.082C11.9693 25.1306 12.0911 25.1306 12.164 25.082L21.8739 19.47C21.9714 19.4214 22.02 19.3246 22.02 19.2031V8.00348C22.02 7.88198 21.9714 7.78478 21.8742 7.73618L12.164 2.14853C12.0668 2.09993 11.9446 2.09993 11.8721 2.14853L2.16187 7.73618C2.064 7.78478 2.0154 7.90628 2.0154 8.00348V19.2031C2.0154 19.2999 2.06434 19.4214 2.16154 19.47L4.81429 21.0006C6.25001 21.7296 7.15046 20.8791 7.15046 20.0289V8.97514C7.15046 8.82934 7.27196 8.68354 7.4424 8.68354H8.68372C8.82952 8.68354 8.97566 8.80504 8.97566 8.97514V20.0289C8.97566 21.9483 7.92941 23.0658 6.10387 23.0658C5.5443 23.0658 5.10622 23.0658 3.86524 22.4583L1.30969 21.0006C0.998966 20.8205 0.741037 20.5618 0.561738 20.2506C0.38244 19.9394 0.288067 19.5865 0.288075 19.2274V8.02778C0.288042 7.66852 0.382438 7.31557 0.5618 7.00429C0.741162 6.69301 0.999191 6.43435 1.31002 6.25422L11.0199 0.642265C11.6287 0.302065 12.456 0.302065 13.0645 0.642265L22.7744 6.25422C23.0852 6.4343 23.3433 6.69295 23.5228 7.00423C23.7022 7.31551 23.7966 7.66849 23.7966 8.02778V19.2274C23.7966 19.5866 23.7021 19.9395 23.5227 20.2507C23.3433 20.5619 23.0852 20.8205 22.7744 21.0006L13.0645 26.6126C12.7725 26.7341 12.4074 26.8313 12.0422 26.8313Z" fill="#5FA04E"/>
<path d="M15.0601 19.1302C10.8009 19.1302 9.92505 17.1865 9.92505 15.5345C9.92505 15.3887 10.0465 15.2429 10.217 15.2429H11.4826C11.6287 15.2429 11.7502 15.3401 11.7502 15.4859C11.945 16.7734 12.5046 17.4052 15.0844 17.4052C17.1286 17.4052 18.0045 16.9435 18.0045 15.8504C18.0045 15.2189 17.7615 14.7569 14.5731 14.4413C11.9203 14.174 10.2659 13.5908 10.2659 11.4774C10.2659 9.50974 11.9207 8.34368 14.6949 8.34368C17.8101 8.34368 19.343 9.41254 19.5381 11.7447C19.5381 11.8176 19.5134 11.8905 19.4648 11.9634C19.4162 12.012 19.3433 12.0606 19.2701 12.0606H17.9802C17.9177 12.0585 17.8577 12.036 17.8094 11.9964C17.761 11.9569 17.727 11.9026 17.7125 11.8419C17.4206 10.5054 16.6663 10.0683 14.6706 10.0683C12.4317 10.0683 12.164 10.8459 12.164 11.4288C12.164 12.1335 12.4803 12.3522 15.4982 12.7406C18.4915 13.1294 19.9026 13.6883 19.9026 15.7775C19.9026 17.9155 18.1263 19.1302 15.0601 19.1302Z" fill="#5FA04E"/>
</g>
<defs>
</defs>
</svg>
